<svg width="550" height="500" viewBox="0 0 550 500" fill="none" xmlns="http://www.w3.org/2000/svg">
<rect x="260.5" y="48.5" width="238" height="151" rx="27.5" fill="white" stroke="#C5CFD6" stroke-width="5"/>
<path d="M114 141C143.271 141 167 117.271 167 88C167 58.7289 143.271 35 114 35C84.7289 35 61 58.7289 61 88C61 117.271 84.7289 141 114 141Z" fill="#F2F2F2"/>
<path d="M114 49C115.657 49 117 47.6569 117 46C117 44.3431 115.657 43 114 43C112.343 43 111 44.3431 111 46C111 47.6569 112.343 49 114 49Z" fill="black" fill-opacity="0.1"/>
<path d="M72 91C73.6569 91 75 89.6569 75 88C75 86.3431 73.6569 85 72 85C70.3431 85 69 86.3431 69 88C69 89.6569 70.3431 91 72 91Z" fill="black" fill-opacity="0.1"/>
<path d="M156 91C157.657 91 159 89.6569 159 88C159 86.3431 157.657 85 156 85C154.343 85 153 86.3431 153 88C153 89.6569 154.343 91 156 91Z" fill="black" fill-opacity="0.1"/>
<path d="M114 133C115.657 133 117 131.657 117 130C117 128.343 115.657 127 114 127C112.343 127 111 128.343 111 130C111 131.657 112.343 133 114 133Z" fill="black" fill-opacity="0.1"/>
<path fill-rule="evenodd" clip-rule="evenodd" d="M114 52L116 87H112L114 52Z" fill="#AFB9C5"/>
<path fill-rule="evenodd" clip-rule="evenodd" d="M131.698 105.698L113.314 90.1421L116.142 87.3137L131.698 105.698Z" fill="#AFB9C5"/>
<path d="M114 92C116.209 92 118 90.2091 118 88C118 85.7909 116.209 84 114 84C111.791 84 110 85.7909 110 88C110 90.2091 111.791 92 114 92Z" fill="#C5CFD6"/>
<path fill-rule="evenodd" clip-rule="evenodd" d="M106.258 239.173C109.123 238.823 112.18 238.947 114.844 240.077C120.509 242.482 122.119 249.174 122.041 254.614C121.957 260.468 120.714 266.863 125.165 271.58C127.211 273.748 129.756 275.408 131.765 277.617C133.912 279.977 135.597 282.677 136.844 285.577C139.134 290.903 140.258 297.167 138.164 302.754C136.32 307.674 131.681 312.114 132.683 317.708C133.729 323.543 139.612 328.004 143.29 332.351C147.453 337.269 151.286 343.556 151.916 350.006C152.519 356.188 149.828 362.44 145.699 367.113C137.448 376.451 125.045 381.028 112.54 381C107.23 380.988 101.219 380.748 96.6366 377.895C95.2204 377.013 94.4733 376.023 93.6315 374.648C92.8767 373.414 91.8796 372.612 90.7255 371.739C88.1899 369.822 86.3587 367.239 85.1901 364.347C80.6522 353.114 84.2792 339.218 90.6312 329.243C92.1364 326.88 93.3686 324.605 92.6374 321.789C91.8744 318.848 89.999 316.196 88.3403 313.669C86.7011 311.17 84.8299 308.787 83.5488 306.087C82.207 303.257 81.8292 300.294 82.0662 297.198C82.5118 291.381 85.0227 286.013 88.5777 281.336C92.0017 276.83 96.0221 272.518 96.0311 266.615C96.041 260.357 91.8577 254.791 93.6399 248.429C94.3778 245.795 95.86 243.092 98.2486 241.513C100.539 239.998 103.564 239.502 106.258 239.173Z" fill="#DDE3E9"/>
<path fill-rule="evenodd" clip-rule="evenodd" d="M104.386 249.176C104.44 248.336 105.437 247.832 106.222 248.051C107.254 248.34 107.235 249.305 107.207 250.165C107.124 252.808 107.506 255.377 108.142 257.942C109.462 263.274 111.903 268.186 113.836 273.308C115.768 278.425 116.675 283.709 115.542 289.124C114.473 294.23 112.795 299.203 111.701 304.315C110.738 308.821 109.712 313.573 111.18 318.067C112.592 322.393 115.714 325.916 117.962 329.825C122.617 337.918 124.681 346.896 124.957 356.135C125.085 360.425 124.97 364.755 123.975 368.963C123.402 371.386 122.632 374.66 120.556 376.333C119.599 377.105 117.961 377.371 117.155 376.229C116.399 375.158 117.062 373.499 117.303 372.357C118.343 367.413 118.552 362.361 118.303 357.342C118.062 352.48 117.487 347.626 115.957 342.982C114.537 338.673 112.379 334.802 109.84 331.032C107.252 327.191 104.562 323.341 103.493 318.789C102.406 314.166 103.289 309.462 104.469 304.927C105.717 300.131 107.352 295.472 109.042 290.805C110.689 286.258 111.272 281.955 110.363 277.196C108.567 267.794 103.76 258.968 104.386 249.176Z" fill="#C5CFD6"/>
<path fill-rule="evenodd" clip-rule="evenodd" d="M181.892 250.582C185.437 251.659 188.958 253.395 191.485 256.118C196.858 261.909 195.209 270.661 192.243 277.053C189.05 283.933 184.212 290.849 186.94 298.743C188.193 302.372 190.301 305.659 191.49 309.316C192.761 313.224 193.309 317.294 193.239 321.372C193.11 328.862 191.118 336.855 185.708 342.373C180.945 347.232 173.158 350.07 171.377 357.206C169.518 364.651 174.061 372.988 176.078 380.041C178.36 388.024 179.533 397.453 176.862 405.409C174.303 413.034 167.842 419.028 160.528 422.406C145.915 429.156 128.949 428.117 114.296 421.578C108.075 418.801 101.151 415.391 97.2845 409.633C96.0897 407.853 95.7364 406.294 95.476 404.23C95.2426 402.378 94.4972 400.911 93.6048 399.278C91.644 395.692 90.8618 391.684 91.0198 387.656C91.6345 372.011 103.234 357.464 115.956 348.972C118.971 346.96 121.618 344.912 122.249 341.2C122.909 337.325 122.111 333.213 121.501 329.361C120.899 325.554 119.964 321.763 119.889 317.902C119.811 313.858 120.933 310.157 122.848 306.619C126.445 299.972 132.227 294.93 138.87 291.247C145.267 287.7 152.262 284.692 155.393 277.715C158.712 270.32 156.747 261.561 162.2 254.964C164.458 252.233 167.625 249.807 171.262 249.182C174.749 248.583 178.558 249.57 181.892 250.582Z" fill="#DDE3E9"/>
<path fill-rule="evenodd" clip-rule="evenodd" d="M174.651 262.811C175.154 261.844 176.584 261.769 177.387 262.44C178.443 263.324 177.914 264.456 177.432 265.46C175.95 268.547 175.052 271.789 174.452 275.159C173.204 282.166 173.485 289.262 173.063 296.341C172.642 303.414 170.935 310.147 166.774 315.965C162.85 321.452 158.283 326.462 154.327 331.943C150.841 336.773 147.153 341.863 146.516 347.954C145.901 353.817 147.707 359.626 148.288 365.434C149.492 377.457 147.204 389.171 142.688 400.257C140.591 405.405 138.189 410.472 134.821 414.933C132.882 417.503 130.267 420.977 126.963 421.869C125.44 422.281 123.385 421.739 123.042 419.964C122.718 418.298 124.363 416.682 125.242 415.455C129.047 410.146 131.938 404.273 134.275 398.198C136.54 392.314 138.41 386.265 139.053 379.963C139.649 374.116 139.153 368.401 138.158 362.606C137.144 356.701 136.015 350.732 137.149 344.781C138.3 338.736 141.795 333.628 145.55 328.876C149.521 323.85 153.873 319.19 158.293 314.549C162.6 310.027 165.536 305.238 166.966 299.126C169.79 287.049 168.791 274.078 174.651 262.811Z" fill="#C5CFD6"/>
<path fill-rule="evenodd" clip-rule="evenodd" d="M72.306 295C78.2003 295 83.3823 298.124 86.9531 302.558C91.133 307.748 91.9772 314.086 93.6745 320.272C94.5191 323.35 95.9717 326.406 98.5174 328.498C100.833 330.4 103.772 330.78 106.543 331.71C112.082 333.567 116.555 338.041 118.321 343.499C120.476 350.158 118.193 356.873 118.586 363.622C118.947 369.819 125.058 373.685 129.974 376.656C134.821 379.586 139.189 382.328 140.649 388.035C142.197 394.088 142.716 400.844 140.572 406.823C137.002 416.779 126.552 421.163 116.456 421.842C107.293 422.459 95.7719 421.491 88.8907 414.84C84.773 410.86 83.2819 405.293 83.4669 399.755C83.5818 396.311 84.264 392.899 85.146 389.571C85.7711 387.213 86.6157 384.864 86.8563 382.427C87.4959 375.942 81.5026 374.697 76.401 372.916C69.9183 370.654 65.3799 366.38 62.224 360.425C59.285 354.881 58.0519 348.658 59.8137 342.554C60.7135 339.437 62.3456 336.61 64.559 334.205C65.5334 333.146 66.9066 332.263 67.7861 331.151C68.6069 330.112 68.4282 328.766 68.1453 327.55C66.8373 321.931 62.762 317.278 61.3045 311.668C59.9887 306.605 60.7665 300.304 65.3954 297.038C67.3953 295.627 69.8616 295.016 72.306 295Z" fill="#C5CFD6"/>
<path fill-rule="evenodd" clip-rule="evenodd" d="M80.3377 309.641C86.585 316.296 88.2831 325.325 88.7815 334.076C89.0606 338.983 88.7701 344.159 90.2118 348.919C91.4454 352.993 94.3373 356.107 97.3183 359.051C103.319 364.975 110.011 370.999 111.766 379.574C112.796 384.606 112.101 389.804 113.524 394.78C114.817 399.304 117.096 403.748 119.867 407.568C122.098 410.645 125.004 413 127.443 415.867C128.187 416.743 129.253 418.031 128.946 419.267C128.586 420.714 126.743 421.172 125.435 420.945C122.386 420.415 119.819 417.503 117.825 415.386C114.91 412.291 112.432 408.962 110.419 405.227C108.183 401.08 106.383 396.679 105.614 392.026C104.816 387.199 105.213 382.168 103.391 377.535C100.324 369.74 92.886 365.14 87.5082 359.064C80.8077 351.494 81.807 342.072 82.4933 332.759C82.8703 327.641 83.2451 321.862 80.6591 317.189C79.672 315.406 77.4711 313.743 77.0467 311.715C76.6579 309.858 78.7797 307.981 80.3377 309.641Z" fill="#AFB9C5"/>
<path fill-rule="evenodd" clip-rule="evenodd" d="M87 419C87.0004 457.058 93.2112 477 126 477C158.789 477 165 457.058 165 419H87Z" fill="#89C5CC"/>
<path d="M498 148.177H462H448.721C439.691 137.031 440.089 143.533 436.769 148.177H423.49C414.194 116.828 397.374 137.031 393.611 148.177H382.324C382.324 190.778 379.225 207.857 376.348 148.177C369.045 11.7777 372.143 31.1396 369.045 148.177C368.473 169.773 366.61 153.286 363.069 148.177H344.478C328.011 123.655 322.124 137.96 314.599 148.177H298H261" stroke="#FF0202" stroke-width="3"/>
<path fill-rule="evenodd" clip-rule="evenodd" d="M279.698 116.47C275.09 111.061 271.972 104.433 272.493 97.0056C273.994 75.6051 303.784 80.3129 309.579 91.114C315.374 101.915 314.686 129.313 307.196 131.244C304.21 132.013 297.847 130.128 291.371 126.224L295.436 154.98H271.436L279.698 116.47Z" fill="#B28B67"/>
<path fill-rule="evenodd" clip-rule="evenodd" d="M292.571 99.369C293.49 112.166 295.92 118.565 299.862 118.565C305.775 118.565 310.791 114.811 313.386 114.811C315.277 114.811 314.855 117.178 313.601 118.933C312.567 120.38 307.53 121.776 307.53 124.02C307.53 126.265 311.509 124.528 311.509 125.859C311.509 128.061 312.209 132.201 308.387 132.201C304.52 132.201 293.431 130.792 291.53 125.052C290.304 121.347 289.511 113.671 289.151 102.022C288.917 101.994 288.678 101.98 288.436 101.98C285.122 101.98 282.436 104.666 282.436 107.98C282.436 109.662 283.128 111.183 284.243 112.272C282.855 114.232 281.299 116.279 279.516 118.391C272.818 114.373 267.848 102.609 274.396 91.3084C276.206 85.7724 280.304 82.8153 285.143 81.4423C289.063 79.8025 293.133 79.6176 296.568 80.6007C303.302 81.1783 309.315 83.2316 311.019 84.4511C311.019 90.8263 309.784 92.7178 299.233 92.5511C296.64 93.9202 294.647 96.278 292.571 99.369Z" fill="#191847"/>
<path fill-rule="evenodd" clip-rule="evenodd" d="M263.436 237.98L299.691 365.207L326.143 458.98H345.436L317.327 237.98H263.436Z" fill="#191847"/>
<path fill-rule="evenodd" clip-rule="evenodd" d="M253.74 237.98C252.902 303.554 250.042 339.32 249.162 345.278C248.281 351.236 234.968 389.136 209.222 458.98H229.209C261.985 391.977 280.282 354.076 284.098 345.278C287.915 336.48 299.694 300.714 317.436 237.98H253.74Z" fill="#2F3676"/>
<path fill-rule="evenodd" clip-rule="evenodd" d="M207.436 476.98L208.436 455.98H229.436C239.394 462.98 252.394 468.647 268.436 472.98V476.98H230.436L217.436 474.98V476.98H207.436Z" fill="#191847"/>
<path fill-rule="evenodd" clip-rule="evenodd" d="M323.436 476.98L324.436 455.98H345.436C355.394 462.98 368.394 468.647 384.436 472.98V476.98H346.436L333.436 474.98V476.98H323.436Z" fill="#191847"/>
<path fill-rule="evenodd" clip-rule="evenodd" d="M347.795 221.59L377.981 247.182C386.449 250.114 393.457 253.516 399.005 257.387C400.286 258.729 401.762 261.368 396.12 260.535C390.478 259.703 384.506 259.08 383.588 260.96C382.67 262.84 385.941 265.394 384.176 267.894C383 269.561 378.321 264.848 370.142 253.757L339.545 238.487L347.795 221.59ZM211.103 210.516L228.815 213.088C209.803 254.338 199.61 276.153 198.237 278.534C195.148 283.89 198.781 293.22 200.202 298.16C193.023 300.232 195.316 289.142 186.239 291.908C177.954 294.433 171.118 300.157 162.912 293.35C161.904 292.514 161.054 289.777 164.26 288.183C172.249 284.211 183.977 276.943 185.8 274.264C188.287 270.611 196.721 249.362 211.103 210.516Z" fill="#B28B67"/>
<path fill-rule="evenodd" clip-rule="evenodd" d="M285.131 138.312L296.106 134.683C310.993 171.873 333.196 207.856 370.293 238.25L361.12 254.077C328.517 234.872 297.654 219.953 285.131 191.135C280.928 181.463 284.788 149.877 285.131 138.312Z" fill="#C5CFD6"/>
<path fill-rule="evenodd" clip-rule="evenodd" d="M247.436 242.98C278.874 246.313 303.62 246.313 321.672 242.98C323.909 242.567 324.262 238.822 323.224 236.281C307.072 196.705 295.996 162.172 295.996 134.683C293.033 136.177 287.846 136.401 280.436 135.354C260.522 163.683 251.368 196.186 247.436 242.98Z" fill="#323337"/>
<path fill-rule="evenodd" clip-rule="evenodd" d="M275.485 132.98H283.784C285.717 144.345 291.811 298.243 310.627 348.586H208.821C211.028 302.467 228.439 247.067 246.076 200.708C230.48 214.98 216.888 239.161 205.298 273.253L186.229 268.358C200.407 207.261 229.558 162.355 273.682 133.639C273.778 133.418 273.873 133.199 273.968 132.98H274.702C274.972 132.807 275.243 132.634 275.515 132.461L275.485 132.98V132.98Z" fill="#DDE3E9"/>
</svg>
